<svg width="17" viewBox="0 0 75 75" fill="none" xmlns="http://www.w3.org/2000/svg">
<path d="M54.7132 39.1993C55.6651 39.1993 56.437 38.4274 56.437 37.4755C56.437 36.5236 55.6651 35.7517 54.7132 35.7517C53.7614 35.7517 52.9895 36.5236 52.9895 37.4755C52.9895 38.4274 53.7614 39.1993 54.7132 39.1993Z" fill="black" stroke="black" stroke-width="5.17133" stroke-linecap="round" stroke-linejoin="round"/>
<path d="M37.4755 39.1993C38.4274 39.1993 39.1993 38.4274 39.1993 37.4755C39.1993 36.5236 38.4274 35.7517 37.4755 35.7517C36.5236 35.7517 35.7517 36.5236 35.7517 37.4755C35.7517 38.4274 36.5236 39.1993 37.4755 39.1993Z" fill="black" stroke="black" stroke-width="5.17133" stroke-linecap="round" stroke-linejoin="round"/>
<path d="M20.2378 39.1993C21.1898 39.1993 21.9615 38.4274 21.9615 37.4755C21.9615 36.5236 21.1898 35.7517 20.2378 35.7517C19.2857 35.7517 18.514 36.5236 18.514 37.4755C18.514 38.4274 19.2857 39.1993 20.2378 39.1993Z" fill="black" stroke="black" stroke-width="5.17133" stroke-linecap="round" stroke-linejoin="round"/>
<path d="M37.4755 71.951C56.5156 71.951 71.951 56.5156 71.951 37.4755C71.951 18.4352 56.5156 3 37.4755 3C18.4352 3 3 18.4352 3 37.4755C3 43.7549 4.67885 49.6423 7.6122 54.7133L4.72378 70.2272L20.2378 67.3389C25.3086 70.2721 31.1961 71.951 37.4755 71.951Z" stroke="black" stroke-width="5.17133" stroke-linecap="round" stroke-linejoin="round"/>
</svg>
