<svg width="24" height="24" viewBox="0 0 24 24" fill="none" xmlns="http://www.w3.org/2000/svg">
<path fill-rule="evenodd" clip-rule="evenodd" d="M15.2153 14.4716H15.9826L20.1008 18.7316C20.499 19.1416 20.499 19.8116 20.1008 20.2216C19.7025 20.6316 19.0518 20.6316 18.6536 20.2216L14.5257 15.9716V15.1816L14.2634 14.9016C12.9036 16.1016 11.0485 16.7216 9.07683 16.3816C6.37669 15.9116 4.22047 13.5916 3.89024 10.7916C3.38517 6.56157 6.8429 3.00157 10.9514 3.52157C13.6709 3.86157 15.9243 6.08157 16.3808 8.86157C16.711 10.8916 16.1088 12.8016 14.9433 14.2016L15.2153 14.4716ZM5.78422 9.97157C5.78422 12.4616 7.73647 14.4716 10.1549 14.4716C12.5734 14.4716 14.5257 12.4616 14.5257 9.97157C14.5257 7.48157 12.5734 5.47157 10.1549 5.47157C7.73647 5.47157 5.78422 7.48157 5.78422 9.97157Z" fill="#84A59D"/>
</svg>
